<?xml version="1.0" standalone="no"?>
<!DOCTYPE svg PUBLIC "-//W3C//DTD SVG 20010904//EN"
 "http://www.w3.org/TR/2001/REC-SVG-20010904/DTD/svg10.dtd">
<svg version="1.0" xmlns="http://www.w3.org/2000/svg"
 width="225.000000pt" height="225.000000pt" viewBox="0 0 225.000000 225.000000"
 preserveAspectRatio="xMidYMid meet">

<g transform="translate(0.000000,225.000000) scale(0.100000,-0.100000)"
fill="#000000" stroke="none">
<path d="M962 1974 c-84 -63 -155 -114 -157 -114 -3 0 -5 16 -5 36 0 100 -149
133 -196 42 -9 -18 -14 -62 -15 -135 l0 -108 -205 -150 c-275 -200 -284 -209
-284 -250 0 -18 3 -41 6 -50 10 -24 62 -44 93 -35 15 4 228 156 474 339 246
182 450 331 452 331 2 0 206 -149 452 -331 246 -183 459 -335 474 -339 31 -9
83 11 93 35 14 39 6 81 -21 107 -39 36 -991 738 -1000 737 -5 0 -77 -52 -161
-115z"/>
<path d="M687 1402 l-427 -317 2 -438 3 -439 28 -24 28 -24 804 0 804 0 28 24
28 24 3 439 3 438 -430 318 c-236 174 -433 317 -438 316 -4 0 -200 -143 -436
-317z m315 -368 c26 -13 63 -37 81 -54 19 -16 38 -30 42 -30 4 0 23 14 43 31
88 77 205 103 274 61 48 -30 99 -111 105 -167 15 -129 -125 -305 -412 -516
-26 -19 -279 204 -361 317 -97 135 -96 241 2 340 59 59 133 65 226 18z"/>
</g>
</svg>
